# xmcd
#
# Track frame offsets:
#	150
#	3859
#	11029
#	20537
#	36177
#	37905
#	48486
#	55729
#	64931
#	71867
#	83524
#	84976
#	87415
#
# Disc length: 1197 seconds
#
# Revision: 1
# Processed by: cddbd v1.5.1PL0 Copyright (c) Steve Scherf et al.
# Submitted via: CDex 1.50Beta5
#
DISCID=9a04ab0d
DTITLE=編集室 - チャレンジ11
DYEAR=1900
DGENRE=
TTITLE0=オープニング
TTITLE1=Words!Words!Words!
TTITLE2=Phrase please!
TTITLE3=もっとボキャブラリー!/もっともっとボキャブラリー!
TTITLE4=お知らせ
TTITLE5=George‘s Selection
TTITLE6=おたよりコーナー
TTITLE7=教えて!ジョージ!!
TTITLE8=チャレステ学芸会
TTITLE9=チャレステ隊(歌)/君らしくっていいじゃない
TTITLE10=お知らせ
TTITLE11=エンディング
TTITLE12=今月のカラオケ
EXTD=
EXTT0=
EXTT1=
EXTT2=
EXTT3=
EXTT4=
EXTT5=
EXTT6=
EXTT7=
EXTT8=
EXTT9=
EXTT10=
EXTT11=
EXTT12=
PLAYORDER=
